<svg id="visual" viewBox="0 0 960 540" width="960" height="540" xmlns="http://www.w3.org/2000/svg" xmlns:xlink="http://www.w3.org/1999/xlink" version="1.1"><rect x="0" y="0" width="960" height="540" fill="#FDFBF7"></rect><path d="M0 257L22.8 249.2C45.7 241.3 91.3 225.7 137 241.2C182.7 256.7 228.3 303.3 274 304.3C319.7 305.3 365.3 260.7 411.2 257.7C457 254.7 503 293.3 548.8 282.5C594.7 271.7 640.3 211.3 686 198.3C731.7 185.3 777.3 219.7 823 253.7C868.7 287.7 914.3 321.3 937.2 338.2L960 355L960 0L937.2 0C914.3 0 868.7 0 823 0C777.3 0 731.7 0 686 0C640.3 0 594.7 0 548.8 0C503 0 457 0 411.2 0C365.3 0 319.7 0 274 0C228.3 0 182.7 0 137 0C91.3 0 45.7 0 22.8 0L0 0Z" fill="#5A7B6E" stroke-linecap="round" stroke-linejoin="miter"></path></svg>